<mxfile host="app.diagrams.net" modified="2023-08-29T22:38:18.155Z" agent="Mozilla/5.0 (Macintosh; Intel Mac OS X 10_15_7) AppleWebKit/537.36 (KHTML, like Gecko) Chrome/116.0.0.0 Safari/537.36" etag="0jw3tlImArzZjgTmU-oA" version="21.6.9" type="device">
  <diagram name="Page-1" id="13e1069c-82ec-6db2-03f1-153e76fe0fe0">
    <mxGraphModel dx="984" dy="553" grid="1" gridSize="10" guides="1" tooltips="1" connect="1" arrows="1" fold="1" page="1" pageScale="1" pageWidth="1100" pageHeight="850" background="none" math="0" shadow="0">
      <root>
        <mxCell id="0" />
        <mxCell id="1" parent="0" />
        <mxCell id="7baba1c4bc27f4b0-2" value=":GPU(BufferA)" style="shape=umlLifeline;perimeter=lifelinePerimeter;whiteSpace=wrap;html=1;container=1;collapsible=0;recursiveResize=0;outlineConnect=0;rounded=1;shadow=0;comic=0;labelBackgroundColor=none;strokeWidth=1;fontFamily=Verdana;fontSize=12;align=center;" parent="1" vertex="1">
          <mxGeometry x="220" y="80" width="105" height="590" as="geometry" />
        </mxCell>
        <mxCell id="7baba1c4bc27f4b0-10" value="" style="html=1;points=[];perimeter=orthogonalPerimeter;rounded=0;shadow=0;comic=0;labelBackgroundColor=none;strokeWidth=1;fontFamily=Verdana;fontSize=12;align=center;fillColor=#d5e8d4;strokeColor=#82b366;" parent="7baba1c4bc27f4b0-2" vertex="1">
          <mxGeometry x="47.5" y="110" width="10" height="90" as="geometry" />
        </mxCell>
        <mxCell id="PtfRrrN-5eNRBN2OQLdG-20" value="" style="html=1;points=[];perimeter=orthogonalPerimeter;rounded=0;shadow=0;comic=0;labelBackgroundColor=none;strokeWidth=1;fontFamily=Verdana;fontSize=12;align=center;fillColor=#dae8fc;strokeColor=#6c8ebf;" vertex="1" parent="7baba1c4bc27f4b0-2">
          <mxGeometry x="47.5" y="200" width="10" height="90" as="geometry" />
        </mxCell>
        <mxCell id="PtfRrrN-5eNRBN2OQLdG-21" value="" style="endArrow=classic;html=1;rounded=0;dashed=1;" edge="1" parent="7baba1c4bc27f4b0-2">
          <mxGeometry width="50" height="50" relative="1" as="geometry">
            <mxPoint x="47.5" y="200" as="sourcePoint" />
            <mxPoint x="-70.5" y="230" as="targetPoint" />
            <Array as="points">
              <mxPoint x="-10.5" y="230" />
            </Array>
          </mxGeometry>
        </mxCell>
        <mxCell id="8W1lwHwHMB5QA3vFqTxy-36" value="Read BufferA" style="text;html=1;strokeColor=none;fillColor=none;align=center;verticalAlign=middle;whiteSpace=wrap;rounded=0;" parent="7baba1c4bc27f4b0-2" vertex="1">
          <mxGeometry x="-50" y="227.5" width="80" height="25" as="geometry" />
        </mxCell>
        <mxCell id="PtfRrrN-5eNRBN2OQLdG-27" value="" style="html=1;points=[];perimeter=orthogonalPerimeter;rounded=0;shadow=0;comic=0;labelBackgroundColor=none;strokeWidth=1;fontFamily=Verdana;fontSize=12;align=center;fillColor=#d5e8d4;strokeColor=#82b366;" vertex="1" parent="7baba1c4bc27f4b0-2">
          <mxGeometry x="47.5" y="290" width="10" height="90" as="geometry" />
        </mxCell>
        <mxCell id="PtfRrrN-5eNRBN2OQLdG-28" value="" style="endArrow=classic;html=1;rounded=0;dashed=1;" edge="1" parent="7baba1c4bc27f4b0-2">
          <mxGeometry width="50" height="50" relative="1" as="geometry">
            <mxPoint x="49" y="290" as="sourcePoint" />
            <mxPoint x="-69" y="320" as="targetPoint" />
            <Array as="points">
              <mxPoint x="-9" y="320" />
            </Array>
          </mxGeometry>
        </mxCell>
        <mxCell id="PtfRrrN-5eNRBN2OQLdG-40" value="" style="html=1;points=[];perimeter=orthogonalPerimeter;rounded=0;shadow=0;comic=0;labelBackgroundColor=none;strokeWidth=1;fontFamily=Verdana;fontSize=12;align=center;fillColor=#dae8fc;strokeColor=#6c8ebf;" vertex="1" parent="7baba1c4bc27f4b0-2">
          <mxGeometry x="47.5" y="380" width="10" height="90" as="geometry" />
        </mxCell>
        <mxCell id="PtfRrrN-5eNRBN2OQLdG-41" value="" style="endArrow=classic;html=1;rounded=0;dashed=1;" edge="1" parent="7baba1c4bc27f4b0-2">
          <mxGeometry width="50" height="50" relative="1" as="geometry">
            <mxPoint x="49" y="380" as="sourcePoint" />
            <mxPoint x="-69" y="410" as="targetPoint" />
            <Array as="points">
              <mxPoint x="-9" y="410" />
            </Array>
          </mxGeometry>
        </mxCell>
        <mxCell id="PtfRrrN-5eNRBN2OQLdG-42" value="Read BufferA" style="text;html=1;strokeColor=none;fillColor=none;align=center;verticalAlign=middle;whiteSpace=wrap;rounded=0;" vertex="1" parent="7baba1c4bc27f4b0-2">
          <mxGeometry x="-48.5" y="407.5" width="80" height="25" as="geometry" />
        </mxCell>
        <mxCell id="PtfRrrN-5eNRBN2OQLdG-49" value="" style="endArrow=classic;html=1;rounded=0;dashed=1;" edge="1" parent="7baba1c4bc27f4b0-2">
          <mxGeometry width="50" height="50" relative="1" as="geometry">
            <mxPoint x="50.5" y="470" as="sourcePoint" />
            <mxPoint x="-67.5" y="500" as="targetPoint" />
            <Array as="points">
              <mxPoint x="-7.5" y="500" />
            </Array>
          </mxGeometry>
        </mxCell>
        <mxCell id="PtfRrrN-5eNRBN2OQLdG-50" value="Read BufferB" style="text;html=1;strokeColor=none;fillColor=none;align=center;verticalAlign=middle;whiteSpace=wrap;rounded=0;" vertex="1" parent="7baba1c4bc27f4b0-2">
          <mxGeometry x="-48.5" y="500" width="80" height="25" as="geometry" />
        </mxCell>
        <mxCell id="7baba1c4bc27f4b0-8" value=":CPU" style="shape=umlLifeline;perimeter=lifelinePerimeter;whiteSpace=wrap;html=1;container=1;collapsible=0;recursiveResize=0;outlineConnect=0;rounded=1;shadow=0;comic=0;labelBackgroundColor=none;strokeWidth=1;fontFamily=Verdana;fontSize=12;align=center;" parent="1" vertex="1">
          <mxGeometry x="100" y="80" width="100" height="590" as="geometry" />
        </mxCell>
        <mxCell id="8W1lwHwHMB5QA3vFqTxy-9" value="" style="html=1;points=[];perimeter=orthogonalPerimeter;outlineConnect=0;targetShapes=umlLifeline;portConstraint=eastwest;newEdgeStyle={&quot;edgeStyle&quot;:&quot;elbowEdgeStyle&quot;,&quot;elbow&quot;:&quot;vertical&quot;,&quot;curved&quot;:0,&quot;rounded&quot;:0};fillColor=#d5e8d4;strokeColor=#82b366;" parent="7baba1c4bc27f4b0-8" vertex="1">
          <mxGeometry x="45" y="230" width="10" height="40" as="geometry" />
        </mxCell>
        <mxCell id="8W1lwHwHMB5QA3vFqTxy-15" value="" style="endArrow=classic;html=1;rounded=0;verticalAlign=top;horizontal=0;" parent="7baba1c4bc27f4b0-8" edge="1">
          <mxGeometry width="50" height="50" relative="1" as="geometry">
            <mxPoint x="45" y="240" as="sourcePoint" />
            <mxPoint x="-40" y="240" as="targetPoint" />
          </mxGeometry>
        </mxCell>
        <mxCell id="8W1lwHwHMB5QA3vFqTxy-17" value="Output" style="edgeLabel;html=1;align=center;verticalAlign=middle;resizable=0;points=[];" parent="8W1lwHwHMB5QA3vFqTxy-15" vertex="1" connectable="0">
          <mxGeometry x="0.027" relative="1" as="geometry">
            <mxPoint x="-1" y="-10" as="offset" />
          </mxGeometry>
        </mxCell>
        <mxCell id="8W1lwHwHMB5QA3vFqTxy-16" value="" style="endArrow=classic;html=1;rounded=0;" parent="7baba1c4bc27f4b0-8" edge="1">
          <mxGeometry width="50" height="50" relative="1" as="geometry">
            <mxPoint x="-40" y="260" as="sourcePoint" />
            <mxPoint x="45" y="260.0000000000001" as="targetPoint" />
          </mxGeometry>
        </mxCell>
        <mxCell id="8W1lwHwHMB5QA3vFqTxy-18" value="Input" style="edgeLabel;html=1;align=center;verticalAlign=middle;resizable=0;points=[];" parent="8W1lwHwHMB5QA3vFqTxy-16" vertex="1" connectable="0">
          <mxGeometry x="0.0989" relative="1" as="geometry">
            <mxPoint x="-7" y="-10" as="offset" />
          </mxGeometry>
        </mxCell>
        <mxCell id="8W1lwHwHMB5QA3vFqTxy-22" value="" style="html=1;points=[];perimeter=orthogonalPerimeter;outlineConnect=0;targetShapes=umlLifeline;portConstraint=eastwest;newEdgeStyle={&quot;edgeStyle&quot;:&quot;elbowEdgeStyle&quot;,&quot;elbow&quot;:&quot;vertical&quot;,&quot;curved&quot;:0,&quot;rounded&quot;:0};fillColor=#dae8fc;strokeColor=#6c8ebf;" parent="7baba1c4bc27f4b0-8" vertex="1">
          <mxGeometry x="45" y="140" width="10" height="40" as="geometry" />
        </mxCell>
        <mxCell id="PtfRrrN-5eNRBN2OQLdG-1" value="" style="html=1;points=[];perimeter=orthogonalPerimeter;outlineConnect=0;targetShapes=umlLifeline;portConstraint=eastwest;newEdgeStyle={&quot;edgeStyle&quot;:&quot;elbowEdgeStyle&quot;,&quot;elbow&quot;:&quot;vertical&quot;,&quot;curved&quot;:0,&quot;rounded&quot;:0};fillColor=#d5e8d4;strokeColor=#82b366;" vertex="1" parent="7baba1c4bc27f4b0-8">
          <mxGeometry x="45" y="60" width="10" height="30" as="geometry" />
        </mxCell>
        <mxCell id="PtfRrrN-5eNRBN2OQLdG-25" value="" style="endArrow=classic;html=1;rounded=0;" edge="1" parent="7baba1c4bc27f4b0-8">
          <mxGeometry width="50" height="50" relative="1" as="geometry">
            <mxPoint x="55" y="270" as="sourcePoint" />
            <mxPoint x="172" y="290" as="targetPoint" />
            <Array as="points">
              <mxPoint x="100" y="290" />
              <mxPoint x="130" y="290" />
              <mxPoint x="140" y="290" />
            </Array>
          </mxGeometry>
        </mxCell>
        <mxCell id="PtfRrrN-5eNRBN2OQLdG-26" value="Write BufferA" style="edgeLabel;html=1;align=center;verticalAlign=middle;resizable=0;points=[];" vertex="1" connectable="0" parent="PtfRrrN-5eNRBN2OQLdG-25">
          <mxGeometry x="-0.2429" y="3" relative="1" as="geometry">
            <mxPoint x="22" y="-12" as="offset" />
          </mxGeometry>
        </mxCell>
        <mxCell id="PtfRrrN-5eNRBN2OQLdG-2" value="" style="endArrow=classic;html=1;rounded=0;" edge="1" parent="7baba1c4bc27f4b0-8">
          <mxGeometry width="50" height="50" relative="1" as="geometry">
            <mxPoint x="55" y="90" as="sourcePoint" />
            <mxPoint x="172" y="110" as="targetPoint" />
            <Array as="points">
              <mxPoint x="100" y="110" />
              <mxPoint x="130" y="110" />
              <mxPoint x="140" y="110" />
            </Array>
          </mxGeometry>
        </mxCell>
        <mxCell id="PtfRrrN-5eNRBN2OQLdG-3" value="Write BufferA" style="edgeLabel;html=1;align=center;verticalAlign=middle;resizable=0;points=[];" vertex="1" connectable="0" parent="PtfRrrN-5eNRBN2OQLdG-2">
          <mxGeometry x="-0.2429" y="3" relative="1" as="geometry">
            <mxPoint x="21" y="-11" as="offset" />
          </mxGeometry>
        </mxCell>
        <mxCell id="8W1lwHwHMB5QA3vFqTxy-23" value="" style="endArrow=classic;html=1;rounded=0;" parent="7baba1c4bc27f4b0-8" edge="1">
          <mxGeometry width="50" height="50" relative="1" as="geometry">
            <mxPoint x="55" y="180" as="sourcePoint" />
            <mxPoint x="172" y="200" as="targetPoint" />
            <Array as="points">
              <mxPoint x="100" y="200" />
              <mxPoint x="130" y="200" />
              <mxPoint x="140" y="200" />
            </Array>
          </mxGeometry>
        </mxCell>
        <mxCell id="8W1lwHwHMB5QA3vFqTxy-24" value="Write BufferB" style="edgeLabel;html=1;align=center;verticalAlign=middle;resizable=0;points=[];" parent="8W1lwHwHMB5QA3vFqTxy-23" vertex="1" connectable="0">
          <mxGeometry x="-0.2429" y="3" relative="1" as="geometry">
            <mxPoint x="22" y="-16" as="offset" />
          </mxGeometry>
        </mxCell>
        <mxCell id="PtfRrrN-5eNRBN2OQLdG-31" value="" style="html=1;points=[];perimeter=orthogonalPerimeter;outlineConnect=0;targetShapes=umlLifeline;portConstraint=eastwest;newEdgeStyle={&quot;edgeStyle&quot;:&quot;elbowEdgeStyle&quot;,&quot;elbow&quot;:&quot;vertical&quot;,&quot;curved&quot;:0,&quot;rounded&quot;:0};fillColor=#dae8fc;strokeColor=#6c8ebf;" vertex="1" parent="7baba1c4bc27f4b0-8">
          <mxGeometry x="45" y="320" width="10" height="40" as="geometry" />
        </mxCell>
        <mxCell id="PtfRrrN-5eNRBN2OQLdG-32" value="" style="endArrow=classic;html=1;rounded=0;verticalAlign=top;horizontal=0;" edge="1" parent="7baba1c4bc27f4b0-8">
          <mxGeometry width="50" height="50" relative="1" as="geometry">
            <mxPoint x="45" y="330" as="sourcePoint" />
            <mxPoint x="-40" y="330" as="targetPoint" />
          </mxGeometry>
        </mxCell>
        <mxCell id="PtfRrrN-5eNRBN2OQLdG-33" value="Output" style="edgeLabel;html=1;align=center;verticalAlign=middle;resizable=0;points=[];" vertex="1" connectable="0" parent="PtfRrrN-5eNRBN2OQLdG-32">
          <mxGeometry x="0.027" relative="1" as="geometry">
            <mxPoint x="-1" y="-10" as="offset" />
          </mxGeometry>
        </mxCell>
        <mxCell id="PtfRrrN-5eNRBN2OQLdG-34" value="" style="endArrow=classic;html=1;rounded=0;" edge="1" parent="7baba1c4bc27f4b0-8">
          <mxGeometry width="50" height="50" relative="1" as="geometry">
            <mxPoint x="-40" y="350" as="sourcePoint" />
            <mxPoint x="45" y="350.0000000000001" as="targetPoint" />
          </mxGeometry>
        </mxCell>
        <mxCell id="PtfRrrN-5eNRBN2OQLdG-35" value="Input" style="edgeLabel;html=1;align=center;verticalAlign=middle;resizable=0;points=[];" vertex="1" connectable="0" parent="PtfRrrN-5eNRBN2OQLdG-34">
          <mxGeometry x="0.0989" relative="1" as="geometry">
            <mxPoint x="-7" y="-10" as="offset" />
          </mxGeometry>
        </mxCell>
        <mxCell id="PtfRrrN-5eNRBN2OQLdG-38" value="" style="endArrow=classic;html=1;rounded=0;" edge="1" parent="7baba1c4bc27f4b0-8">
          <mxGeometry width="50" height="50" relative="1" as="geometry">
            <mxPoint x="55" y="360" as="sourcePoint" />
            <mxPoint x="172" y="380" as="targetPoint" />
            <Array as="points">
              <mxPoint x="100" y="380" />
              <mxPoint x="130" y="380" />
              <mxPoint x="140" y="380" />
            </Array>
          </mxGeometry>
        </mxCell>
        <mxCell id="PtfRrrN-5eNRBN2OQLdG-39" value="Write BufferB" style="edgeLabel;html=1;align=center;verticalAlign=middle;resizable=0;points=[];" vertex="1" connectable="0" parent="PtfRrrN-5eNRBN2OQLdG-38">
          <mxGeometry x="-0.2429" y="3" relative="1" as="geometry">
            <mxPoint x="22" y="-12" as="offset" />
          </mxGeometry>
        </mxCell>
        <mxCell id="PtfRrrN-5eNRBN2OQLdG-4" value="Run with Buffer A" style="text;html=1;strokeColor=none;fillColor=none;align=center;verticalAlign=middle;whiteSpace=wrap;rounded=0;" vertex="1" parent="1">
          <mxGeometry x="280" y="220" width="110" height="30" as="geometry" />
        </mxCell>
        <mxCell id="PtfRrrN-5eNRBN2OQLdG-29" value="Read BufferB" style="text;html=1;strokeColor=none;fillColor=none;align=center;verticalAlign=middle;whiteSpace=wrap;rounded=0;" vertex="1" parent="1">
          <mxGeometry x="170" y="400" width="80" height="25" as="geometry" />
        </mxCell>
        <mxCell id="PtfRrrN-5eNRBN2OQLdG-30" value="Run with Buffer B" style="text;html=1;strokeColor=none;fillColor=none;align=center;verticalAlign=middle;whiteSpace=wrap;rounded=0;" vertex="1" parent="1">
          <mxGeometry x="280" y="310" width="110" height="30" as="geometry" />
        </mxCell>
        <mxCell id="PtfRrrN-5eNRBN2OQLdG-37" value="Run with Buffer A" style="text;html=1;strokeColor=none;fillColor=none;align=center;verticalAlign=middle;whiteSpace=wrap;rounded=0;" vertex="1" parent="1">
          <mxGeometry x="280" y="400" width="110" height="30" as="geometry" />
        </mxCell>
        <mxCell id="PtfRrrN-5eNRBN2OQLdG-43" value="" style="html=1;points=[];perimeter=orthogonalPerimeter;outlineConnect=0;targetShapes=umlLifeline;portConstraint=eastwest;newEdgeStyle={&quot;edgeStyle&quot;:&quot;elbowEdgeStyle&quot;,&quot;elbow&quot;:&quot;vertical&quot;,&quot;curved&quot;:0,&quot;rounded&quot;:0};fillColor=#d5e8d4;strokeColor=#82b366;" vertex="1" parent="1">
          <mxGeometry x="145" y="490" width="10" height="40" as="geometry" />
        </mxCell>
        <mxCell id="PtfRrrN-5eNRBN2OQLdG-44" value="" style="endArrow=classic;html=1;rounded=0;verticalAlign=top;horizontal=0;" edge="1" parent="1">
          <mxGeometry width="50" height="50" relative="1" as="geometry">
            <mxPoint x="145" y="500" as="sourcePoint" />
            <mxPoint x="60" y="500" as="targetPoint" />
          </mxGeometry>
        </mxCell>
        <mxCell id="PtfRrrN-5eNRBN2OQLdG-45" value="Output" style="edgeLabel;html=1;align=center;verticalAlign=middle;resizable=0;points=[];" vertex="1" connectable="0" parent="PtfRrrN-5eNRBN2OQLdG-44">
          <mxGeometry x="0.027" relative="1" as="geometry">
            <mxPoint x="-1" y="-10" as="offset" />
          </mxGeometry>
        </mxCell>
        <mxCell id="PtfRrrN-5eNRBN2OQLdG-46" value="" style="endArrow=classic;html=1;rounded=0;" edge="1" parent="1">
          <mxGeometry width="50" height="50" relative="1" as="geometry">
            <mxPoint x="60" y="520" as="sourcePoint" />
            <mxPoint x="145" y="520.0000000000001" as="targetPoint" />
          </mxGeometry>
        </mxCell>
        <mxCell id="PtfRrrN-5eNRBN2OQLdG-47" value="Input" style="edgeLabel;html=1;align=center;verticalAlign=middle;resizable=0;points=[];" vertex="1" connectable="0" parent="PtfRrrN-5eNRBN2OQLdG-46">
          <mxGeometry x="0.0989" relative="1" as="geometry">
            <mxPoint x="-7" y="-10" as="offset" />
          </mxGeometry>
        </mxCell>
        <mxCell id="PtfRrrN-5eNRBN2OQLdG-48" value="Run with Buffer B" style="text;html=1;strokeColor=none;fillColor=none;align=center;verticalAlign=middle;whiteSpace=wrap;rounded=0;" vertex="1" parent="1">
          <mxGeometry x="280" y="480" width="110" height="30" as="geometry" />
        </mxCell>
        <mxCell id="PtfRrrN-5eNRBN2OQLdG-51" value="" style="html=1;points=[];perimeter=orthogonalPerimeter;outlineConnect=0;targetShapes=umlLifeline;portConstraint=eastwest;newEdgeStyle={&quot;edgeStyle&quot;:&quot;elbowEdgeStyle&quot;,&quot;elbow&quot;:&quot;vertical&quot;,&quot;curved&quot;:0,&quot;rounded&quot;:0};fillColor=#dae8fc;strokeColor=#6c8ebf;" vertex="1" parent="1">
          <mxGeometry x="145" y="580" width="10" height="40" as="geometry" />
        </mxCell>
        <mxCell id="PtfRrrN-5eNRBN2OQLdG-52" value="" style="endArrow=classic;html=1;rounded=0;verticalAlign=top;horizontal=0;" edge="1" parent="1">
          <mxGeometry width="50" height="50" relative="1" as="geometry">
            <mxPoint x="145" y="590" as="sourcePoint" />
            <mxPoint x="60" y="590" as="targetPoint" />
          </mxGeometry>
        </mxCell>
        <mxCell id="PtfRrrN-5eNRBN2OQLdG-53" value="Output" style="edgeLabel;html=1;align=center;verticalAlign=middle;resizable=0;points=[];" vertex="1" connectable="0" parent="PtfRrrN-5eNRBN2OQLdG-52">
          <mxGeometry x="0.027" relative="1" as="geometry">
            <mxPoint x="-1" y="-10" as="offset" />
          </mxGeometry>
        </mxCell>
        <mxCell id="PtfRrrN-5eNRBN2OQLdG-54" value="" style="endArrow=classic;html=1;rounded=0;" edge="1" parent="1">
          <mxGeometry width="50" height="50" relative="1" as="geometry">
            <mxPoint x="60" y="610" as="sourcePoint" />
            <mxPoint x="145" y="610.0000000000001" as="targetPoint" />
          </mxGeometry>
        </mxCell>
        <mxCell id="PtfRrrN-5eNRBN2OQLdG-55" value="Input" style="edgeLabel;html=1;align=center;verticalAlign=middle;resizable=0;points=[];" vertex="1" connectable="0" parent="PtfRrrN-5eNRBN2OQLdG-54">
          <mxGeometry x="0.0989" relative="1" as="geometry">
            <mxPoint x="-7" y="-10" as="offset" />
          </mxGeometry>
        </mxCell>
      </root>
    </mxGraphModel>
  </diagram>
</mxfile>
